<svg width="150" height="60" viewBox="0 0 288 60" fill="none" xmlns="http://www.w3.org/2000/svg">
<path d="M130.157 26.4933H114.59V12.0605H107.773V47.6822H114.59V32.6823H130.157V47.6822H136.974V12.0605H130.157V26.4933Z" fill="black"/>
<path d="M166.395 12.0605H143.725V33.0848C143.725 38.3896 144.901 42.231 147.249 44.6212C149.597 47.0054 153.328 48.2005 158.444 48.2005C163.56 48.2005 167.157 46.9627 169.578 44.481C172.005 41.9993 173.212 38.2006 173.212 33.0909V12.0605H166.395ZM164.688 39.9018C163.554 41.1518 161.468 41.7798 158.438 41.7798C155.407 41.7798 153.383 41.164 152.243 39.9323C151.109 38.7006 150.536 36.4201 150.536 33.0848V17.7617H166.389V33.0848C166.389 36.3774 165.822 38.6518 164.682 39.9018H164.688Z" fill="black"/>
<path d="M196.98 32.3409L187.944 12.0605H179.535V47.6822H185.956V22.908L194.023 40.6944H199.651L207.773 22.969V47.6822H214.193V12.0605H206.072L196.98 32.3409Z" fill="black"/>
<path d="M231.413 12.0605L217.772 47.6883H224.931L227.431 40.414H242.15L244.705 47.6883H251.864L238.455 12.0605H231.413ZM229.425 34.786L231.925 27.5726C232.382 26.2068 232.864 24.7312 233.376 23.1397C233.888 21.5483 234.352 20.0361 234.766 18.5971C235.224 20.1519 235.711 21.7312 236.242 23.3409C236.772 24.9507 237.248 26.3592 237.663 27.5726L240.163 34.786H229.425Z" fill="black"/>
<path d="M281.113 36.7737L264.18 12.0605H257.534V47.6822H263.955V23.5361L280.833 47.6822H287.479V12.0605H281.113V36.7737Z" fill="black"/>
<path d="M73.1152 21.4205C69.4384 9.14622 58.0605 0.201172 44.5911 0.201172C32.14 0.201172 21.4754 7.84745 17.0303 18.701V18.6827C6.65848 21.0242 0 24.6522 0 28.7192C0 32.7863 6.24995 36.1826 16.0669 38.5301C19.7437 50.8044 31.1217 59.7494 44.5911 59.7494C57.0422 59.7494 67.7067 52.1032 72.1518 41.2496V41.2679C82.5237 38.9264 89.1821 35.2984 89.1821 31.2314C89.1821 27.1644 82.9322 23.768 73.1152 21.4205ZM68.7799 36.3655C65.9567 47.0849 56.2007 54.9873 44.5972 54.9873C34.2131 54.9873 25.3108 48.6581 21.5242 39.646C20.2803 36.6765 19.5852 33.4143 19.5852 29.9936V29.9753C19.5852 16.1644 30.7802 4.96333 44.5972 4.96333C54.9812 4.96333 63.8836 11.2925 67.6701 20.3047C64.8592 19.8169 61.8409 19.4083 58.6702 19.1034C53.9568 18.6217 48.8898 18.3535 43.6033 18.3535C38.6765 18.3535 33.9387 18.5852 29.5058 19.0059V21.4327H29.4814V29.1826H29.4936C29.7193 37.335 36.3899 43.8715 44.5911 43.8715C52.7922 43.8715 59.469 37.335 59.6885 29.1826H59.7007V23.5058H60.1946C61.3592 23.5424 64.3348 23.829 66.4567 25.7375C66.6884 25.9692 66.908 26.207 67.1214 26.4509C68.1884 27.7741 70.0969 31.0302 68.786 36.3655H68.7799ZM54.591 23.5119V29.1338C54.3959 34.4997 49.9996 38.7862 44.585 38.7862C39.1704 38.7862 34.7741 34.4936 34.579 29.1338V23.5119H54.5849H54.591Z" fill="url(#paint0_linear_462_5734)"/>
<defs>
<linearGradient id="paint0_linear_462_5734" x1="24.5181" y1="9.03036" x2="64.786" y2="51.0544" gradientUnits="userSpaceOnUse">
<stop stop-color="#FF843D"/>
<stop offset="1" stop-color="#FF9D42"/>
</linearGradient>
</defs>
</svg>
